<svg id="visual" viewBox="0 0 900 600" width="900" height="600" xmlns="http://www.w3.org/2000/svg" xmlns:xlink="http://www.w3.org/1999/xlink" version="1.1"><path d="M0 55L13.7 52C27.3 49 54.7 43 82 44C109.3 45 136.7 53 163.8 62C191 71 218 81 245.2 85C272.3 89 299.7 87 327 80C354.3 73 381.7 61 409 53C436.3 45 463.7 41 491 49C518.3 57 545.7 77 573 80C600.3 83 627.7 69 654.8 59C682 49 709 43 736.2 44C763.3 45 790.7 53 818 61C845.3 69 872.7 77 886.3 81L900 85L900 0L886.3 0C872.7 0 845.3 0 818 0C790.7 0 763.3 0 736.2 0C709 0 682 0 654.8 0C627.7 0 600.3 0 573 0C545.7 0 518.3 0 491 0C463.7 0 436.3 0 409 0C381.7 0 354.3 0 327 0C299.7 0 272.3 0 245.2 0C218 0 191 0 163.8 0C136.7 0 109.3 0 82 0C54.7 0 27.3 0 13.7 0L0 0Z" fill="#1b65a9"></path><path d="M0 115L13.7 123C27.3 131 54.7 147 82 147C109.3 147 136.7 131 163.8 126C191 121 218 127 245.2 132C272.3 137 299.7 141 327 137C354.3 133 381.7 121 409 116C436.3 111 463.7 113 491 124C518.3 135 545.7 155 573 156C600.3 157 627.7 139 654.8 129C682 119 709 117 736.2 113C763.3 109 790.7 103 818 104C845.3 105 872.7 113 886.3 117L900 121L900 83L886.3 79C872.7 75 845.3 67 818 59C790.7 51 763.3 43 736.2 42C709 41 682 47 654.8 57C627.7 67 600.3 81 573 78C545.7 75 518.3 55 491 47C463.7 39 436.3 43 409 51C381.7 59 354.3 71 327 78C299.7 85 272.3 87 245.2 83C218 79 191 69 163.8 60C136.7 51 109.3 43 82 42C54.7 41 27.3 47 13.7 50L0 53Z" fill="#2b8ae5"></path><path d="M0 199L13.7 198C27.3 197 54.7 195 82 187C109.3 179 136.7 165 163.8 165C191 165 218 179 245.2 189C272.3 199 299.7 205 327 205C354.3 205 381.7 199 409 189C436.3 179 463.7 165 491 167C518.3 169 545.7 187 573 195C600.3 203 627.7 201 654.8 197C682 193 709 187 736.2 179C763.3 171 790.7 161 818 162C845.3 163 872.7 175 886.3 181L900 187L900 119L886.3 115C872.7 111 845.3 103 818 102C790.7 101 763.3 107 736.2 111C709 115 682 117 654.8 127C627.7 137 600.3 155 573 154C545.7 153 518.3 133 491 122C463.7 111 436.3 109 409 114C381.7 119 354.3 131 327 135C299.7 139 272.3 135 245.2 130C218 125 191 119 163.8 124C136.7 129 109.3 145 82 145C54.7 145 27.3 129 13.7 121L0 113Z" fill="#74afee"></path><path d="M0 343L13.7 341C27.3 339 54.7 335 82 342C109.3 349 136.7 367 163.8 368C191 369 218 353 245.2 341C272.3 329 299.7 321 327 322C354.3 323 381.7 333 409 333C436.3 333 463.7 323 491 328C518.3 333 545.7 353 573 349C600.3 345 627.7 317 654.8 311C682 305 709 321 736.2 321C763.3 321 790.7 305 818 298C845.3 291 872.7 293 886.3 294L900 295L900 185L886.3 179C872.7 173 845.3 161 818 160C790.7 159 763.3 169 736.2 177C709 185 682 191 654.8 195C627.7 199 600.3 201 573 193C545.7 185 518.3 167 491 165C463.7 163 436.3 177 409 187C381.7 197 354.3 203 327 203C299.7 203 272.3 197 245.2 187C218 177 191 163 163.8 163C136.7 163 109.3 177 82 185C54.7 193 27.3 195 13.7 196L0 197Z" fill="#74afee"></path><path d="M0 415L13.7 424C27.3 433 54.7 451 82 463C109.3 475 136.7 481 163.8 475C191 469 218 451 245.2 439C272.3 427 299.7 421 327 429C354.3 437 381.7 459 409 456C436.3 453 463.7 425 491 423C518.3 421 545.7 445 573 448C600.3 451 627.7 433 654.8 427C682 421 709 427 736.2 426C763.3 425 790.7 417 818 412C845.3 407 872.7 405 886.3 404L900 403L900 293L886.3 292C872.7 291 845.3 289 818 296C790.7 303 763.3 319 736.2 319C709 319 682 303 654.8 309C627.7 315 600.3 343 573 347C545.7 351 518.3 331 491 326C463.7 321 436.3 331 409 331C381.7 331 354.3 321 327 320C299.7 319 272.3 327 245.2 339C218 351 191 367 163.8 366C136.7 365 109.3 347 82 340C54.7 333 27.3 337 13.7 339L0 341Z" fill="#2b8ae5"></path><path d="M0 601L13.7 601C27.3 601 54.7 601 82 601C109.3 601 136.7 601 163.8 601C191 601 218 601 245.2 601C272.3 601 299.7 601 327 601C354.3 601 381.7 601 409 601C436.3 601 463.7 601 491 601C518.3 601 545.7 601 573 601C600.3 601 627.7 601 654.8 601C682 601 709 601 736.2 601C763.3 601 790.7 601 818 601C845.3 601 872.7 601 886.3 601L900 601L900 401L886.3 402C872.7 403 845.3 405 818 410C790.7 415 763.3 423 736.2 424C709 425 682 419 654.8 425C627.7 431 600.3 449 573 446C545.7 443 518.3 419 491 421C463.7 423 436.3 451 409 454C381.7 457 354.3 435 327 427C299.7 419 272.3 425 245.2 437C218 449 191 467 163.8 473C136.7 479 109.3 473 82 461C54.7 449 27.3 431 13.7 422L0 413Z" fill="#1b65a9"></path></svg>